<svg width="270" height="140" viewBox="0 0 270 140" fill="none" xmlns="http://www.w3.org/2000/svg">
<g clip-path="url(#clip0_51_6183)">
<path d="M59.2422 127.628C59.2422 127.628 57.7956 123.673 55.943 118.533H55.8615V118.305C54.1464 113.548 52.1004 107.83 50.5371 103.306V118.484H44.3031V96.9428H48.4111C48.2513 96.4306 48.149 96.0413 48.0994 95.7988C47.8357 94.5223 48.1474 93.7245 48.6046 93.0527H30.4941V139.326H65.083V138.445C61.2099 136.602 60.1054 129.953 59.2422 127.628ZM39.1018 118.533H32.8678V96.9923H39.1018V118.533Z" stroke="currentColor" stroke-width="0.960582" stroke-linecap="round" stroke-linejoin="round"/>
<path d="M50.5356 122.208V120.191H44.3081V122.208H50.5356Z" fill="currentColor" fill-opacity=".5"/>
<path d="M55.8613 122.254V120.237H56.4528L57.0074 122.254H55.8613Z" fill="currentColor" fill-opacity=".5"/>
<path d="M39.1001 122.254V120.237H32.8725V122.254H39.1001Z" fill="currentColor" fill-opacity=".5"/>
<path d="M47.3034 133.51C48.511 133.51 49.4901 132.532 49.4901 131.327C49.4901 130.121 48.511 129.144 47.3034 129.144C46.0957 129.144 45.1167 130.121 45.1167 131.327C45.1167 132.532 46.0957 133.51 47.3034 133.51Z" stroke="currentColor" stroke-width="0.960582" stroke-linecap="round" stroke-linejoin="round"/>
<path d="M60.6441 132.632C60.4067 132.969 60.0786 133.232 59.6978 133.391C59.3169 133.549 58.8989 133.597 58.4919 133.529C58.085 133.46 57.7058 133.278 57.3981 133.004C57.0905 132.729 56.867 132.373 56.7534 131.977C56.6398 131.581 56.6408 131.161 56.7563 130.765C56.8718 130.37 57.097 130.015 57.406 129.742C57.715 129.469 58.095 129.289 58.5023 129.222C58.9095 129.156 59.3274 129.205 59.7074 129.366" stroke="currentColor" stroke-width="0.960582" stroke-linecap="round" stroke-linejoin="round"/>
<path d="M35.8664 133.558C37.074 133.558 38.053 132.58 38.053 131.375C38.053 130.169 37.074 129.192 35.8664 129.192C34.6587 129.192 33.6797 130.169 33.6797 131.375C33.6797 132.58 34.6587 133.558 35.8664 133.558Z" stroke="currentColor" stroke-width="0.960582" stroke-linecap="round" stroke-linejoin="round"/>
<path d="M50.5371 103.538V118.492H44.3096V96.946H48.2545" stroke="currentColor" stroke-width="0.960582" stroke-linecap="round" stroke-linejoin="round"/>
<path d="M50.1118 102.071H44.9072" stroke="currentColor" stroke-width="0.960582" stroke-linecap="round" stroke-linejoin="round"/>
<path d="M50.1118 104.444H44.9072" stroke="currentColor" stroke-width="0.960582" stroke-linecap="round" stroke-linejoin="round"/>
<path d="M50.1118 106.817H44.9072" stroke="currentColor" stroke-width="0.960582" stroke-linecap="round" stroke-linejoin="round"/>
<path d="M39.1001 118.538V96.994H32.8726V118.538H39.1001Z" stroke="currentColor" stroke-width="0.960582" stroke-linecap="round" stroke-linejoin="round"/>
<path d="M38.6798 111.99H33.3218" stroke="currentColor" stroke-width="0.960582" stroke-linecap="round" stroke-linejoin="round"/>
<path d="M38.6798 99.7463H33.3218" stroke="currentColor" stroke-width="0.960582" stroke-linecap="round" stroke-linejoin="round"/>
<path d="M38.6798 114.362H33.3218" stroke="currentColor" stroke-width="0.960582" stroke-linecap="round" stroke-linejoin="round"/>
<path d="M38.6798 116.735H33.3218" stroke="currentColor" stroke-width="0.960582" stroke-linecap="round" stroke-linejoin="round"/>
<path d="M54.5377 75.2951C54.2487 74.4829 53.8203 73.727 53.2717 73.0613C51.2865 70.6471 51.2625 69.1137 50.1436 67.9569C49.0247 66.8001 47.2488 67.3282 48.8472 71.2518C49.0998 71.8709 49.3294 72.4331 49.5362 72.9384" stroke="currentColor" stroke-width="0.960582" stroke-linecap="round" stroke-linejoin="round"/>
<path d="M46.3071 72.6576C47.9343 72.6815 53.3403 73.0884 56.3102 77.513" stroke="currentColor" stroke-width="0.960582" stroke-linecap="round" stroke-linejoin="round"/>
<path d="M46.397 76.1265C49.8336 75.4021 58.4173 74.6457 60.1021 84.5832" stroke="currentColor" stroke-width="0.960582" stroke-linecap="round" stroke-linejoin="round"/>
<path d="M51.6974 87.5607C51.2291 85.9347 50.676 84.3934 50.0734 83.4536C48.3055 80.6963 44.3574 80.9006 44.3574 80.9006C44.3574 80.9006 34.3191 72.0146 32.8661 70.4094C31.4131 68.8042 31.9694 67.274 34.5669 69.0579C35.908 69.9786 38.6397 71.93 40.9607 73.607" stroke="currentColor" stroke-width="0.960582" stroke-linecap="round" stroke-linejoin="round"/>
<path d="M44.186 80.5048C44.186 80.5048 39.031 69.0722 38.259 66.9182C37.4869 64.7641 38.5307 63.628 40.2842 66.4857C41.0451 67.7271 42.2295 69.677 43.3213 71.4912" stroke="currentColor" stroke-width="0.960582" stroke-linecap="round" stroke-linejoin="round"/>
<path d="M43.6983 79.5905C43.6983 79.5905 43.2875 69.7839 43.2891 67.8835C43.2891 64.7513 45.1736 63.861 45.6596 68.083C45.9793 70.9024 46.3421 76.0993 46.3421 76.0993" stroke="currentColor" stroke-width="0.960582" stroke-linecap="round" stroke-linejoin="round"/>
<path d="M192.14 75.4755C192.43 74.5968 192.88 73.7794 193.468 73.0645C195.455 70.6487 195.476 69.1137 196.6 67.9585C197.724 66.8033 199.493 67.3298 197.895 71.2535C197.625 71.9204 197.38 72.5214 197.159 73.0565" stroke="currentColor" stroke-width="0.960582" stroke-linecap="round" stroke-linejoin="round"/>
<path d="M200.569 72.656C199.148 72.656 193.638 72.9496 190.553 77.3359" stroke="currentColor" stroke-width="0.960582" stroke-linecap="round" stroke-linejoin="round"/>
<path d="M200.307 76.1185C196.846 75.3972 188.318 74.6824 186.638 84.5752" stroke="currentColor" stroke-width="0.960582" stroke-linecap="round" stroke-linejoin="round"/>
<path d="M195.161 87.1521C195.604 85.6793 196.12 84.3119 196.667 83.4502C198.435 80.693 202.383 80.8973 202.383 80.8973C202.383 80.8973 212.418 72.0129 213.874 70.4077C215.33 68.8025 214.771 67.2723 212.173 69.0562C210.797 70.0008 207.958 72.0336 205.594 73.7346" stroke="currentColor" stroke-width="0.960582" stroke-linecap="round" stroke-linejoin="round"/>
<path d="M202.554 80.5048C202.554 80.5048 207.709 69.0722 208.481 66.9182C209.253 64.7641 208.209 63.628 206.457 66.4857C205.68 67.7495 204.465 69.752 203.353 71.5917" stroke="currentColor" stroke-width="0.960582" stroke-linecap="round" stroke-linejoin="round"/>
<path d="M203.351 71.614C203.409 69.9434 203.452 68.4994 203.45 67.8835C203.45 64.7513 201.566 63.861 201.08 68.083C200.76 70.9024 200.399 76.0993 200.399 76.0993" stroke="currentColor" stroke-width="0.960582" stroke-linecap="round" stroke-linejoin="round"/>
<path d="M203.042 79.5905C203.042 79.5905 203.23 75.1068 203.352 71.6124" stroke="currentColor" stroke-width="0.960582" stroke-linecap="round" stroke-linejoin="round"/>
<path d="M101.658 63.1238C93.7267 67.0793 91.2235 73.2815 92.0563 79.7421H91.9796C91.9796 79.7421 81.5481 79.6033 75.7042 96.9332C73.9923 92.9123 72.2548 88.9775 71.5083 87.7457C69.8091 84.9502 64.0084 86.2059 62.493 84.2641C60.9777 82.3222 60.4406 81.7111 60.4406 81.7111C60.4406 81.7111 55.933 87.0819 50.3033 86.4804C50.3033 86.4804 49.9836 87.4473 50.1978 89.8886C50.412 92.3299 47.4372 92.6091 48.1006 95.802C48.764 98.9948 59.237 127.628 59.237 127.628C60.2248 130.29 61.5292 138.617 66.9415 138.914C66.9562 138.953 66.9818 138.986 67.0153 139.011C67.0488 139.036 67.0886 139.05 67.1301 139.053C75.7122 139.029 180.654 139.116 180.654 139.116C180.654 139.116 180.663 139.003 180.674 138.789C185.35 137.688 186.561 130.138 187.493 127.628C187.493 127.628 197.968 98.9948 198.63 95.802C199.291 92.6091 196.321 92.3299 196.534 89.8886C196.747 87.4473 196.427 86.4804 196.427 86.4804C190.804 87.0739 186.294 81.7127 186.294 81.7127C186.294 81.7127 185.757 82.319 184.244 84.2657C182.73 86.2123 179.856 84.0136 178.158 86.8091C176.787 89.0685 171.924 100.91 170.107 105.369C164.592 88.9967 157.497 80.6771 145.921 78.5837C145.162 73.9915 143.136 68.7786 138.01 64.9906" stroke="currentColor" stroke-width="0.960582" stroke-linecap="round" stroke-linejoin="round"/>
<path d="M196.299 89.5312C196.701 86.9782 196.493 85.9953 196.493 85.9953C191.355 87.1043 186.608 81.2739 186.608 81.2739C186.608 81.2739 186.069 81.9505 184.53 84.1014C184.092 84.7572 183.417 85.2199 182.647 85.3938C184.779 92.322 194.065 93.2123 197.546 93.2953C197.287 91.7842 195.996 91.4699 196.299 89.5312Z" fill="currentColor"/>
<path d="M50.1339 89.5185C49.7327 86.9655 50.2474 85.9953 50.2474 85.9953C55.3864 87.1043 60.1338 81.2739 60.1338 81.2739C60.1338 81.2739 60.9075 81.3601 62.4436 83.5078C63.0622 84.3742 64.1252 85.1034 64.7661 85.2805C62.6338 92.2071 51.9546 93.1469 48.4731 93.2315C48.7353 91.7252 50.4376 91.4587 50.1339 89.5185Z" fill="currentColor"/>
<path d="M92.4349 79.423C89.3116 80.0612 85.6367 81.4813 82.7739 84.6518C85.4385 88.5004 95.1811 101.808 112.345 104.597C112.332 104.478 112.306 104.361 112.268 104.248C102.753 100.34 93.4404 89.5057 92.4349 79.423Z" fill="currentColor"/>
<path d="M145.288 77.6534C145.883 81.1989 145.72 84.3821 145.64 86.2618C145.376 92.4751 143.092 96.7657 141.337 99.858L141.001 102.081C148.25 100.375 154.276 88.8371 155.246 82.2344C152.673 80.8351 151.592 78.9267 145.288 77.6534Z" fill="currentColor"/>
<path d="M112.147 100.129C112.147 100.129 119.037 111.994 119.751 119.489" stroke="currentColor" stroke-width="1.28078" stroke-linecap="round" stroke-linejoin="round"/>
<path d="M140.065 99.8341C140.065 99.8341 137.155 111.509 137.943 118.997" stroke="currentColor" stroke-width="1.28078" stroke-linecap="round" stroke-linejoin="round"/>
<path d="M75.519 96.3046L82.9902 113.761" stroke="currentColor" stroke-width="0.960582" stroke-linecap="round" stroke-linejoin="round"/>
<path d="M170.363 104.886L165.272 114.815" stroke="currentColor" stroke-width="0.960582" stroke-linecap="round" stroke-linejoin="round"/>
<path d="M97.8721 126.494C97.8721 126.494 97.2327 139.485 90.4297 139.182" stroke="currentColor" stroke-width="0.960582" stroke-linecap="round" stroke-linejoin="round"/>
<path d="M135.926 105.112C139.584 94.3037 138.163 80.7394 135.692 78.7736C135.195 78.3795 133.701 78.0795 131.629 77.8513C130.763 77.7572 130.085 78.3858 130.085 78.3858L133.157 78.8645C131.787 91.9677 125.929 96.0972 125.929 96.0972C116.381 85.089 105.705 77.7093 105.705 77.7093L106.473 77.1812L105.929 77.1891L101.023 78.8757C101.023 78.8757 119.701 96.1977 125.232 127.805C126.1 132.761 126.687 136.656 127.077 139.712L136.535 139.158C135.117 128.191 133.608 111.974 135.926 105.112Z" fill="currentColor"/>
<path d="M110.021 70.6935L109.782 74.9043L105.706 77.7094C105.706 77.7094 116.382 85.0891 125.929 96.1116C125.929 96.1116 131.787 91.9774 133.157 78.879L130.085 78.4003" stroke="currentColor" stroke-width="0.960582" stroke-linecap="round" stroke-linejoin="round"/>
<path d="M104.719 55.5591C103.068 56.0282 99.6715 57.5392 101.043 61.8394C102.231 65.562 105.544 64.9812 107.633 64.1738" stroke="currentColor" stroke-width="0.960582" stroke-linecap="round" stroke-linejoin="round"/>
<path d="M135.865 40.088C137.449 46.4896 137.91 53.4912 137.889 58.8987L135.865 40.088Z" fill="white"/>
<path d="M135.865 40.088C137.449 46.4896 137.91 53.4912 137.889 58.8987" stroke="currentColor" stroke-width="0.960582" stroke-linecap="round" stroke-linejoin="round"/>
<path d="M108.124 54.0033C109.288 54.9431 112.785 60.7448 113.795 63.5227C113.795 63.5227 120.44 60.3044 130.336 58.988C130.336 58.988 135.755 58.463 137.985 58.8683C137.985 58.8683 138.677 69.0467 134.896 74.8053C131.116 80.5639 121.68 80.1905 116.973 77.5498C112.266 74.909 111.378 73.4937 109.985 70.2403C108.591 66.9868 104.491 54.7277 104.491 54.7277L108.124 54.0033Z" stroke="currentColor" stroke-width="0.960582" stroke-linecap="round" stroke-linejoin="round"/>
<path d="M105.554 56.4957C105.554 56.4957 102.061 52.1795 100.372 47.4693C98.7733 43.0414 100.33 38.0264 104.254 35.5022C107.538 33.3912 110.268 34.4315 110.268 34.4315C110.268 34.4315 105.859 28.4863 110.762 22.2139C111.612 21.1213 112.679 20.2151 113.896 19.5519C115.112 18.8887 116.453 18.4826 117.833 18.3589C124.615 17.7765 127.358 23.3324 127.358 23.3324C127.358 23.3324 133.076 9.0054 148.813 15.2682C150.4 15.9064 152.337 17.9488 153.316 19.3657C159.249 27.9597 144.321 40.6863 136.011 42.5213C126.884 44.5349 121.305 43.6095 118.073 41.6628C120.437 42.7542 119.529 57.0589 105.554 56.4957Z" fill="currentColor"/>
<path d="M129.51 52.6072L131.518 61.3097L128.936 61.8952" stroke="currentColor" stroke-width="1.28078" stroke-linecap="round" stroke-linejoin="round"/>
<path d="M132.935 56.1001C133.427 56.0452 133.756 55.3745 133.669 54.602C133.583 53.8296 133.114 53.2479 132.622 53.3029C132.129 53.3578 131.801 54.0285 131.887 54.801C131.974 55.5734 132.443 56.155 132.935 56.1001Z" fill="currentColor"/>
<path d="M124.413 56.6668C124.905 56.6118 125.234 55.9411 125.148 55.1687C125.061 54.3962 124.592 53.8146 124.1 53.8695C123.607 53.9245 123.279 54.5952 123.365 55.3676C123.452 56.14 123.921 56.7217 124.413 56.6668Z" fill="currentColor"/>
<path d="M121.096 53.0013C121.096 53.0013 124.742 52.7843 124.695 50.3525" stroke="currentColor" stroke-width="1.28078" stroke-linecap="round" stroke-linejoin="round"/>
<path d="M131.589 46.8726C131.589 46.8726 133.987 45.9295 134.837 47.9049" stroke="currentColor" stroke-width="1.28078" stroke-linecap="round" stroke-linejoin="round"/>
<path d="M128.719 65.7758C127.439 66.0096 126.136 66.0958 124.836 66.0327C124.037 65.9992 123.431 66.4922 123.668 66.9901C124.082 67.8645 125.071 68.9048 127.421 68.632C129.735 68.3575 130.197 67.29 130.192 66.4683C130.189 65.9737 129.443 65.6338 128.719 65.7758Z" stroke="currentColor" stroke-width="0.960582" stroke-linecap="round" stroke-linejoin="round"/>
<path d="M150.058 119.388C149.721 119.388 149.391 119.488 149.11 119.676C148.829 119.863 148.61 120.129 148.481 120.44C148.352 120.752 148.318 121.094 148.384 121.425C148.45 121.755 148.612 122.059 148.851 122.297C149.09 122.536 149.394 122.698 149.725 122.764C150.056 122.83 150.4 122.796 150.712 122.667C151.023 122.538 151.29 122.319 151.478 122.039C151.665 121.759 151.765 121.429 151.765 121.092C151.765 120.641 151.585 120.207 151.265 119.888C150.945 119.568 150.511 119.389 150.058 119.388Z" fill="currentColor"/>
<path d="M144.561 131.376C144.108 131.376 143.674 131.556 143.354 131.875C143.034 132.195 142.854 132.628 142.854 133.08C142.854 133.532 143.034 133.966 143.354 134.285C143.674 134.605 144.108 134.784 144.561 134.784H144.569C145.022 134.783 145.456 134.603 145.775 134.283C146.095 133.962 146.273 133.528 146.272 133.076C146.271 132.624 146.09 132.191 145.769 131.873C145.449 131.554 145.014 131.375 144.561 131.376Z" fill="currentColor"/>
<path d="M188.445 115.73H142.09V127.309L133.583 127.451L133.639 139.03L182.767 138.797L182.711 127.309H188.45L188.445 115.73ZM146.455 134.95C146.21 135.201 145.918 135.401 145.595 135.538C145.272 135.675 144.925 135.746 144.574 135.748H144.561C143.854 135.75 143.175 135.471 142.674 134.973C142.173 134.475 141.89 133.799 141.889 133.093C141.887 132.387 142.166 131.71 142.665 131.209C143.164 130.709 143.841 130.427 144.548 130.425H144.561C145.085 130.427 145.598 130.583 146.034 130.874C146.47 131.165 146.81 131.578 147.012 132.061C147.214 132.544 147.269 133.075 147.17 133.589C147.071 134.103 146.822 134.577 146.455 134.95ZM150.058 123.751C149.531 123.751 149.015 123.595 148.577 123.302C148.138 123.01 147.797 122.594 147.595 122.108C147.393 121.621 147.34 121.086 147.443 120.57C147.546 120.054 147.8 119.58 148.173 119.207C148.546 118.835 149.021 118.582 149.538 118.479C150.055 118.376 150.591 118.429 151.079 118.63C151.566 118.832 151.982 119.173 152.275 119.611C152.568 120.048 152.724 120.563 152.724 121.089C152.724 121.795 152.444 122.473 151.944 122.972C151.444 123.472 150.766 123.753 150.058 123.754V123.751ZM157.493 135.959L157.462 129.736L159.483 129.726L159.511 135.949L157.493 135.959ZM159.994 118.099H162.015V124.322H159.994V118.099ZM160.416 135.944L160.386 129.722L181.965 129.619L181.995 135.842L160.416 135.944ZM184.5 124.316H162.921V118.093H184.5V124.316Z" fill="currentColor"/>
<path d="M176.861 135.158L176.839 130.538" stroke="currentColor" stroke-opacity=".5" stroke-width="0.960582" stroke-linecap="round" stroke-linejoin="round"/>
<path d="M174.484 135.169L174.462 130.55" stroke="currentColor" stroke-opacity=".5" stroke-width="0.960582" stroke-linecap="round" stroke-linejoin="round"/>
<path d="M172.107 135.18L172.085 130.561" stroke="currentColor" stroke-opacity=".5" stroke-width="0.960582" stroke-linecap="round" stroke-linejoin="round"/>
<path d="M169.478 123.537V118.918" stroke="currentColor" stroke-opacity=".5" stroke-width="0.960582" stroke-linecap="round" stroke-linejoin="round"/>
<path d="M181.743 123.537V118.918" stroke="currentColor" stroke-opacity=".5" stroke-width="0.960582" stroke-linecap="round" stroke-linejoin="round"/>
<path d="M167.101 123.537V118.918" stroke="currentColor" stroke-opacity=".5" stroke-width="0.960582" stroke-linecap="round" stroke-linejoin="round"/>
<path d="M164.724 123.537V118.918" stroke="currentColor" stroke-opacity=".5" stroke-width="0.960582" stroke-linecap="round" stroke-linejoin="round"/>
<path d="M237.091 98.8417H179.683V139.262H237.091V98.8417Z" fill="currentColor" fill-opacity=".5"/>
<path d="M211.893 98.9342V139.493V98.9342Z" fill="currentColor" fill-opacity=".5"/>
<path d="M211.893 98.9342V139.493" stroke="currentColor" stroke-width="0.960582" stroke-linecap="round" stroke-linejoin="round"/>
<path d="M204.164 103.319H230.14" stroke="currentColor" stroke-width="0.960582" stroke-linecap="round" stroke-linejoin="round"/>
<path d="M219.88 117.841H236.569" stroke="currentColor" stroke-width="0.960582" stroke-linecap="round" stroke-linejoin="round"/>
<path d="M201.567 131.389H234.103" stroke="currentColor" stroke-width="0.960582" stroke-linecap="round" stroke-linejoin="round"/>
<path d="M206.113 114.211H189.294" stroke="currentColor" stroke-width="0.960582" stroke-linecap="round" stroke-linejoin="round"/>
<path d="M179.747 107.857H189.943" stroke="currentColor" stroke-width="0.960582" stroke-linecap="round" stroke-linejoin="round"/>
<path d="M179.683 126.527H199.618" stroke="currentColor" stroke-width="0.960582" stroke-linecap="round" stroke-linejoin="round"/>
<path d="M179.596 107.921C175.309 109.606 179.725 112.425 179.725 112.425C179.725 112.425 180.83 109.234 186.479 107.933L179.596 107.921Z" fill="currentColor" fill-opacity=".5" stroke="currentColor" stroke-width="0.960582" stroke-linecap="round" stroke-linejoin="round"/>
<path d="M237.259 117.774C241.544 119.459 237.127 122.28 237.127 122.28C237.127 122.28 236.025 119.088 230.374 117.786L237.259 117.774Z" fill="currentColor" fill-opacity=".5" stroke="currentColor" stroke-width="0.960582" stroke-linecap="round" stroke-linejoin="round"/>
<path d="M194.749 126.556C194.749 126.556 184.802 128.429 185.048 134.271C185.048 134.271 177.075 131.351 179.773 126.556H194.749Z" fill="currentColor" fill-opacity=".5" stroke="currentColor" stroke-width="0.960582" stroke-linecap="round" stroke-linejoin="round"/>
<path d="M-0.0473633 139.212H269.291" stroke="currentColor" stroke-width="1.28078" stroke-linecap="round" stroke-linejoin="round"/>
</g>
<defs>
<clipPath id="clip0_51_6183">
<rect width="270" height="140" fill="white"/>
</clipPath>
</defs>
</svg>
