<svg width="242" height="155" viewBox="0 0 242 155" fill="none" xmlns="http://www.w3.org/2000/svg">
<g clip-path="url(#clip0_54_7008)">
<path d="M117.355 147.703C117.355 147.703 91.5916 149.898 67.5366 147.289L67.4629 154.957L122.245 154.191L121.687 149.432C120.363 148.823 118.721 148.091 117.787 147.759L117.355 147.703Z" fill="currentColor"/>
<path d="M76.9952 78.5823C73.2553 79.3229 69.6488 80.1987 68.0931 81.0394C66.0195 82.1732 59.8302 82.9366 54.2554 96.1068C54.2448 96.1313 74.214 109.972 74.214 109.972L70.1 130.701L114.208 136.412H114.247C114.818 136.468 116.296 136.63 116.296 136.63C117.643 136.836 118.976 137.118 120.291 137.476L118.795 124.722C118.795 124.722 125.381 119.114 125.291 111.573C125.202 104.031 124.94 104.328 124.94 104.328L133.006 96.0787C133.006 96.0787 123.632 84.0388 117.971 80.6655C114.3 79.1422 110.537 77.8474 106.706 76.7886L106.567 77.8065L109.866 78.4313C110.354 79.279 115.929 90.0149 101.438 90.8924C91.9813 91.4663 82.2575 85.7061 77.4166 79.0491" fill="currentColor"/>
<path d="M67.8261 48.9196C31.626 47.498 24.5815 69.8174 24.5815 86.8346V154.372" stroke="currentColor" stroke-width="1.0544" stroke-linecap="round" stroke-linejoin="round"/>
<path d="M164.935 93.4653C161.279 100.486 157.56 118.003 150.25 125.583C147.29 128.648 141.52 130.482 138.242 129.65C134.964 128.818 114.89 112.389 114.89 112.389L129.518 94.0726L142.314 104.954" stroke="currentColor" stroke-width="1.0544" stroke-linecap="round" stroke-linejoin="round"/>
<path d="M166.782 84.7183C166.782 84.7183 169.716 87.4264 170.042 89.4991C170.369 91.5719 169.653 95.4295 171.161 96.6528C172.669 97.8761 173.173 95.2628 173.809 93.6516C174.444 92.0405 174.081 87.7089 171.912 85.4484" stroke="currentColor" stroke-width="1.0544" stroke-linecap="round" stroke-linejoin="round"/>
<path d="M173.52 94.845C174.081 95.1645 175.032 95.3996 175.034 93.3357C175.034 90.4099 175.359 88.0809 173.601 86.5312C172.488 85.5583 171.307 84.6674 170.065 83.8652" stroke="currentColor" stroke-width="1.0544" stroke-linecap="round" stroke-linejoin="round"/>
<path d="M164.622 87.3575C164.622 87.3575 168.797 87.0451 169.214 88.8862C169.63 90.7273 169.214 94.2357 170.641 95.2448C172.069 96.254 172.365 93.8776 172.841 92.3928C173.317 90.908 173.257 86.5098 171.177 84.6091C169.096 82.7083 167.742 81.8378 167.742 81.8378C167.742 81.8378 161.379 77.1745 155.68 84.6126C149.948 92.0997 138.302 110.921 136.875 113.77" stroke="currentColor" stroke-width="1.0544" stroke-linecap="round" stroke-linejoin="round"/>
<path d="M165.285 70.9985L162.859 71.6075L169.882 99.5046L171.394 101.66C171.422 101.699 171.461 101.729 171.506 101.746C171.55 101.763 171.599 101.767 171.646 101.756C171.693 101.746 171.736 101.722 171.769 101.687C171.802 101.652 171.824 101.609 171.833 101.562L172.307 98.8991L165.285 70.9985Z" fill="currentColor" fill-opacity="0.5"/>
<path d="M161.233 92.5718C161.233 92.5718 165.93 92.3963 166.88 94.176C167.83 95.9556 169.972 96.433 169.496 93.4616C169.02 90.4903 165.809 87.9805 164.443 87.3276" stroke="currentColor" stroke-width="1.0544" stroke-linecap="round" stroke-linejoin="round"/>
<path d="M107.666 69.6508L106.557 77.8049L109.856 78.4297C110.344 79.2774 115.919 90.0133 101.428 90.8908C91.9709 91.4647 82.2471 85.7046 77.4062 79.0475L86.8878 76.7747L91.5917 59.2607" stroke="currentColor" stroke-width="1.0544" stroke-linecap="round" stroke-linejoin="round"/>
<path d="M89.3286 52.8807C89.3286 52.8807 80.6793 53.9495 81.178 45.8287C81.5572 39.6684 87.6254 40.037 90.5348 40.5811" stroke="currentColor" stroke-width="1.0544" stroke-linecap="round" stroke-linejoin="round"/>
<path d="M122.684 49.1844C122.4 52.8876 119.153 69.7276 107.282 69.6065C95.4107 69.4854 88.7228 57.8826 88.7965 46.7659C88.8702 35.6492 94.8594 27.0809 102.381 26.9861C109.903 26.8914 124.742 22.3738 122.684 49.1844Z" stroke="currentColor" stroke-width="1.0544" stroke-linecap="round" stroke-linejoin="round"/>
<path d="M87.8705 20.7944L91.8984 19.3931L89.43 12.3037L85.402 13.705L87.8705 20.7944Z" fill="currentColor" fill-opacity="0.5"/>
<path d="M85.0266 15.0184C89.1751 15.0184 92.5381 11.6569 92.5381 7.51019C92.5381 3.36351 89.1751 0.00195312 85.0266 0.00195312C80.8781 0.00195312 77.5151 3.36351 77.5151 7.51019C77.5151 11.6569 80.8781 15.0184 85.0266 15.0184Z" fill="currentColor"/>
<path d="M91.5706 17.0612C98.2427 14.9551 105.419 13.9688 111.728 16.4733C130.836 25.11 130.887 39.5157 122.851 46.0762C123.155 35.8722 120.661 30.9211 117.151 28.5921C113.318 34.7015 100.931 40.0001 89.5847 40.1195C89.5601 40.2195 89.539 40.3231 89.5145 40.4249C86.4049 40.037 81.5114 40.3178 81.1725 45.8288C80.7054 53.4335 88.4452 53.007 89.4249 52.921C89.5566 53.523 91.1421 58.9603 91.1421 58.9603L89.4267 66.7616L64.2146 62.8408C63.8599 62.8327 63.5121 62.7414 63.1992 62.5741C62.8864 62.4068 62.6173 62.1683 62.4137 61.8779C62.2101 61.5874 62.0778 61.2532 62.0274 60.9021C61.9769 60.5511 62.0098 60.1931 62.1234 59.8571C65.1575 50.8325 70.1037 24.1763 91.5706 17.0612Z" fill="currentColor"/>
<path d="M109.677 60.1505C109.677 60.1505 106.836 61.1842 105.735 57.7671" stroke="currentColor" stroke-width="1.0544" stroke-linecap="round" stroke-linejoin="round"/>
<path d="M110.669 54.0656L114.198 54.4938L113.464 40.2935" stroke="currentColor" stroke-width="1.0544" stroke-linecap="round" stroke-linejoin="round"/>
<path d="M103.277 39.5861C103.277 39.5861 106.295 37.5748 108.095 39.8634" stroke="currentColor" stroke-width="1.0544" stroke-linecap="round" stroke-linejoin="round"/>
<path d="M118.846 41.6274C118.846 41.6274 121.576 40.5427 122.619 42.6488" stroke="currentColor" stroke-width="1.0544" stroke-linecap="round" stroke-linejoin="round"/>
<path d="M107.708 46.9138C107.863 45.9197 107.467 45.0326 106.824 44.9326C106.181 44.8325 105.534 45.5573 105.38 46.5515C105.225 47.5456 105.62 48.4327 106.263 48.5327C106.906 48.6328 107.553 47.908 107.708 46.9138Z" fill="currentColor"/>
<path d="M120.211 49.6433C120.366 48.6492 119.97 47.7621 119.327 47.6621C118.685 47.562 118.038 48.2868 117.883 49.281C117.728 50.2751 118.124 51.1622 118.767 51.2622C119.41 51.3623 120.056 50.6375 120.211 49.6433Z" fill="currentColor"/>
<path d="M109.872 44.1413C110.688 38.7582 108.038 33.8925 103.953 33.2735C99.8673 32.6544 95.8937 36.5165 95.0773 41.8995C94.2609 47.2826 96.9109 52.1483 100.996 52.7674C105.082 53.3864 109.055 49.5244 109.872 44.1413Z" stroke="currentColor" stroke-opacity="0.5" stroke-width="1.0544" stroke-linecap="round" stroke-linejoin="round"/>
<path d="M130.806 47.7424C131.622 42.3593 128.972 37.4936 124.887 36.8746C120.801 36.2555 116.828 40.1175 116.011 45.5006C115.195 50.8837 117.845 55.7494 121.93 56.3684C126.016 56.9875 129.989 53.1254 130.806 47.7424Z" stroke="currentColor" stroke-opacity="0.5" stroke-width="1.0544" stroke-linecap="round" stroke-linejoin="round"/>
<path d="M115.947 44.028L110.075 43.1206" stroke="currentColor" stroke-opacity="0.5" stroke-width="1.0544" stroke-linecap="round" stroke-linejoin="round"/>
<path d="M95.1174 39.9614L88.1011 40.4095" stroke="currentColor" stroke-opacity="0.5" stroke-width="1.0544" stroke-linecap="round" stroke-linejoin="round"/>
<path d="M180.051 153.935L172.399 153.961L158.911 124.195L165.442 121.494L180.051 153.935Z" fill="currentColor" fill-opacity="0.5"/>
<path d="M196.678 91.3242L195.695 90.1132C195.372 89.716 194.904 89.4633 194.395 89.4106C193.886 89.358 193.376 89.5097 192.979 89.8324L166.381 111.42L129.156 141.46L134.311 145.742L134.838 147.453C134.838 147.453 133.503 147.453 133.58 149.28C133.658 151.108 132.933 150.081 135.698 153.191C136.804 152.355 150.108 141.469 163.791 130.245C178.872 118.2 194.782 105.474 195.923 104.482C197.637 102.997 197.855 101.181 198.381 98.95C198.703 97.6336 198.717 96.2607 198.421 94.9382C198.126 93.6156 197.529 92.3789 196.678 91.3242Z" fill="currentColor" fill-opacity="0.5"/>
<path d="M197.428 95.231L134.362 146.083" stroke="currentColor" stroke-width="1.0544" stroke-linecap="round" stroke-linejoin="round"/>
<path d="M167.757 127.089L162.426 131.542" stroke="currentColor" stroke-width="1.0544" stroke-linecap="round" stroke-linejoin="round"/>
<path d="M211.199 153.654C211.199 142.859 209.755 132.886 206.907 124.016C204.611 116.861 201.403 110.402 197.37 104.817C192.078 97.4863 186.756 93.5848 184.377 92.0737V41.4536C184.377 41.1559 184.318 40.8611 184.205 40.586C184.091 40.3109 183.924 40.0609 183.713 39.8503C183.503 39.6397 183.253 39.4727 182.978 39.3587C182.703 39.2447 182.408 39.186 182.11 39.186H180.566C180.268 39.1858 179.973 39.2443 179.698 39.3582C179.423 39.472 179.172 39.6391 178.962 39.8497C178.751 40.0603 178.584 40.3103 178.47 40.5856C178.356 40.8608 178.298 41.1558 178.298 41.4536V124.848C178.298 125.146 178.356 125.441 178.47 125.716C178.584 125.991 178.751 126.241 178.962 126.452C179.172 126.663 179.423 126.83 179.698 126.943C179.973 127.057 180.268 127.116 180.566 127.116H182.11C182.408 127.116 182.703 127.057 182.978 126.943C183.253 126.829 183.503 126.662 183.713 126.451C183.924 126.241 184.091 125.991 184.205 125.716C184.318 125.441 184.377 125.146 184.377 124.848V98.6815C186.705 100.565 189.846 103.557 193.019 107.952C198.565 115.632 205.122 129.08 205.78 150.162H193.73C193.128 150.162 192.55 150.402 192.124 150.827C191.699 151.253 191.46 151.831 191.46 152.433V154.955H211.162V153.654H211.199Z" fill="currentColor"/>
<path d="M126.614 149.534C126.508 149.399 126.391 149.264 126.262 149.128C126.306 149.186 126.35 149.244 126.39 149.304L126.614 149.534Z" fill="currentColor"/>
<path d="M121.243 145.601V145.523C120.978 145.358 120.691 145.232 120.391 145.149C120.391 145.149 120.721 145.321 121.243 145.601Z" fill="currentColor"/>
<path d="M134.673 146.806C134.595 145.775 131.064 143.036 128.327 141.014C123.739 137.639 116.294 136.626 116.294 136.626C116.294 136.626 114.816 136.465 114.245 136.409H114.207L70.0999 130.701L74.2103 109.967L54.7205 96.4419C48.691 109.551 47.2319 131.787 49.4969 139.405C50.4152 142.49 53.8092 145.196 56.9767 145.777C83.3319 150.602 117.355 147.708 117.355 147.708L117.792 147.764C119.539 148.384 123.753 150.397 123.753 150.397C127.56 152.103 127.242 150.156 125.995 148.803C126.216 149.015 126.423 149.242 126.613 149.482C127.881 150.641 129.867 150.184 130.178 149.754C130.488 149.324 129.091 148.059 127.245 146.053L127.467 146.216C130.52 149.737 134.162 150.77 133.651 148.498C133.614 148.322 133.299 147.911 132.81 147.336C133.856 147.657 134.739 147.685 134.673 146.806Z" stroke="currentColor" stroke-width="1.0544" stroke-linecap="round" stroke-linejoin="round"/>
<path d="M126.613 149.533C124.979 147.427 120.382 145.146 120.382 145.146C120.909 145.196 124.041 147.143 125.597 148.466" fill="white"/>
<path d="M126.613 149.533C124.979 147.427 120.382 145.146 120.382 145.146C120.909 145.196 124.041 147.143 125.597 148.466" stroke="currentColor" stroke-width="1.0544" stroke-linecap="round" stroke-linejoin="round"/>
<path d="M121.841 142.036C121.841 142.036 125.337 144.022 127.203 146.057L121.841 142.036Z" fill="white"/>
<path d="M121.841 142.036C121.841 142.036 125.337 144.022 127.203 146.057" stroke="currentColor" stroke-width="1.0544" stroke-linecap="round" stroke-linejoin="round"/>
<path d="M133.65 148.531C133.459 147.676 126.181 140.282 123.524 138.99C121.472 137.997 118.413 136.919 114.208 136.444" stroke="currentColor" stroke-width="1.0544" stroke-linecap="round" stroke-linejoin="round"/>
<path d="M157.277 149.698H96.7552C95.6885 149.698 94.8237 150.563 94.8237 151.629V153.024C94.8237 154.09 95.6885 154.955 96.7552 154.955H157.277C158.344 154.955 159.209 154.09 159.209 153.024V151.629C159.209 150.563 158.344 149.698 157.277 149.698Z" fill="currentColor" fill-opacity="0.5"/>
<path d="M0.526855 154.474H241.473" stroke="currentColor" stroke-width="1.0544" stroke-linecap="round" stroke-linejoin="round"/>
</g>
<defs>
<clipPath id="clip0_54_7008">
<rect width="242" height="155" fill="white"/>
</clipPath>
</defs>
</svg>
