<svg width="85" height="24" viewBox="0 0 85 24" fill="none" xmlns="http://www.w3.org/2000/svg">
<path d="M32 5.1H35.4L30.2 18.1H27.1L21.9 5.1H25.4L28.6 14.5L32 5.1ZM51.4 11.7C51 11.4 50.6 11.1 50 10.8C49.4 10.6 48.7 10.4 47.9 10.3L46.2 10C45.8 9.9 45.4 9.9 45.2 9.8C44.9 9.7 44.7 9.6 44.6 9.5C44.5 9.4 44.4 9.3 44.3 9.1C44.2 8.9 44.2 8.7 44.2 8.5C44.2 8.3 44.2 8.1 44.3 8C44.4 7.8 44.5 7.7 44.7 7.6C44.9 7.5 45.2 7.3 45.5 7.3C45.8 7.2 46.2 7.2 46.8 7.2C47.7 7.2 48.3 7.3 48.7 7.6C49.1 7.9 49.4 8.4 49.5 9V9.1L52.3 8.7V8.6C52.2 8.1 52 7.6 51.8 7.1C51.6 6.6 51.2 6.2 50.8 5.9C50.4 5.6 49.8 5.3 49.1 5.1C48.4 4.9 47.6 4.8 46.6 4.8C45.8 4.8 45.1 4.9 44.4 5.1C43.7 5.3 43.2 5.6 42.7 5.9C42.2 6.2 41.8 6.7 41.6 7.2C41.3 7.7 41.2 8.3 41.2 8.9C41.2 9.5 41.3 10.1 41.5 10.5C41.7 10.9 42 11.3 42.4 11.6C42.8 11.9 43.3 12.2 43.9 12.4C44.5 12.6 45.1 12.7 45.9 12.9L47.6 13.2C48.4 13.3 48.8 13.5 49.1 13.8C49.3 14.1 49.5 14.4 49.5 14.8C49.5 15.3 49.3 15.6 49 15.9C48.6 16.2 48 16.3 47 16.3C46.2 16.3 45.5 16.2 45 15.9C44.5 15.6 44.2 15.1 44 14.3V14.2H41.1V14.3C41.1 15.1 41.3 15.8 41.7 16.4C42 17 42.5 17.4 43 17.8C43.5 18.1 44.2 18.4 44.9 18.5C45.6 18.6 46.3 18.7 47.1 18.7C48.9 18.7 50.3 18.3 51.2 17.6C52.1 16.9 52.6 15.9 52.6 14.7C52.6 14.1 52.5 13.6 52.4 13.1C52.1 12.5 51.8 12.1 51.4 11.7ZM68.2 11.6C68.2 10.2 67.9 9.2 67.4 8.4C66.9 7.6 66 7.3 64.9 7.3C63.8 7.3 63 7.7 62.4 8.5C61.9 9.3 61.6 10.4 61.6 11.7C61.6 13.1 61.9 14.1 62.4 14.9C62.9 15.7 63.7 16.1 64.9 16.1C66.1 16.1 66.9 15.7 67.4 14.9C67.9 14.1 68.2 13 68.2 11.6ZM69.6 6.6C70.2 7.2 70.6 7.9 70.9 8.8C71.2 9.6 71.3 10.6 71.3 11.6C71.3 12.7 71.1 13.7 70.9 14.5C70.6 15.4 70.2 16.1 69.6 16.7C69 17.3 68.4 17.8 67.6 18.1C66.8 18.4 65.9 18.6 64.9 18.6C62.9 18.6 61.3 18 60.2 16.8C59.1 15.6 58.5 13.9 58.5 11.7C58.5 10.6 58.7 9.7 58.9 8.8C59.2 8 59.6 7.2 60.2 6.6C60.8 6 61.5 5.5 62.3 5.2C63.1 4.9 64 4.7 65 4.7C66 4.7 66.9 4.9 67.7 5.2C68.4 5.5 69.1 6 69.6 6.6ZM79.9 4.7C79.1 4.7 78.3 4.9 77.6 5.3C77 5.6 76.4 6.1 75.8 6.8V5.2H72.8V18.2H75.9V10.5C75.9 10 76 9.6 76.1 9.3C76.3 9 76.5 8.6 76.8 8.4C77.5 7.8 78.2 7.5 79.1 7.5C79.8 7.5 80.3 7.7 80.7 8.1C81.1 8.5 81.2 9.2 81.2 10.2V18.3H84.3V9.7C84.3 6.3 82.8 4.7 79.9 4.7ZM36.5 18.2H39.6V5.2H36.5V18.2ZM53.9 18.2H57V5.2H53.9V18.2ZM5.6 3.6C6.6 3.6 7.4 2.8 7.4 1.8C7.4 0.8 6.6 0 5.6 0C4.6 0 3.8 0.8 3.8 1.8C3.8 2.8 4.6 3.6 5.6 3.6ZM22.2 14C22.1 14.4 21.8 16.3 20.3 16.3C19.7 16.3 19.3 15.7 19.4 15.1L20.7 10.1C20.9 9.2 20.9 8.3 20.8 7.5C20.5 5.9 19.1 4.6 17.4 4.6C15.8 4.6 14 5.7 12.9 7.5L13.6 5H8.5L7.8 7.5H10.4L9 12.9C8.5 14.5 7.9 15.9 6 15.9C4.9 15.9 3.9 14.9 4.2 13.4C4.2 13.4 6.3 5.5 6.4 5.1H0.6L0 7.6H2.6L1.1 13.1C0.9 14 0.8 14.9 1 15.7C1.3 17.3 2.7 18.6 4.4 18.6C5.8 18.6 7.3 17.8 8.3 16.5L7.8 18.2H10.7L12.8 10.4C13.3 8.8 13.9 7.4 15.8 7.4C16.9 7.4 17.9 8.4 17.6 9.9L16.4 14.3C15.8 16.4 17.3 18.6 19.6 18.6C23 18.6 23.9 14.6 24 14H22.2ZM38 3.6C39 3.6 39.8 2.8 39.8 1.8C39.8 0.8 39 0 38 0C37 0 36.2 0.8 36.2 1.8C36.2 2.8 37 3.6 38 3.6ZM55.5 3.6C56.5 3.6 57.3 2.8 57.3 1.8C57.3 0.8 56.5 0 55.5 0C54.5 0 53.7 0.8 53.7 1.8C53.7 2.8 54.5 3.6 55.5 3.6Z" fill="currentColor"/>
</svg>
