<svg width="24" height="24" viewBox="0 0 24 24" fill="none" xmlns="http://www.w3.org/2000/svg">
<g clip-path="url(#clip0_1_4)">
<mask id="path-1-inside-1_1_4" fill="white">
<path fill-rule="evenodd" clip-rule="evenodd" d="M21.8222 0H2.17515C0.972811 0 0 0.972814 0 2.17515V21.8235C0 23.0245 0.972811 24 2.17515 24H21.8235C23.0245 24 24 23.0259 24 21.8235V2.17515C24 1.88928 23.9436 1.60622 23.8342 1.34214C23.7247 1.07807 23.5642 0.83816 23.362 0.636145C23.1597 0.434129 22.9196 0.273964 22.6554 0.16481C22.3912 0.0556557 22.1081 -0.0003475 21.8222 0ZM9.48525 6.10508C9.48525 5.29641 8.81669 4.66655 8.02002 4.66655C7.21402 4.66655 6.56548 5.31642 6.56548 6.12376C6.56548 6.9271 7.21402 7.57564 8.02003 7.57564C8.81669 7.57564 9.48525 6.9271 9.48525 6.10508ZM15.6304 16.391C15.6304 17.5973 16.3496 18.4807 17.8335 18.4807C19.1079 18.4807 20.1328 17.6694 20.6852 15.7037L19.7405 15.3408C19.2787 16.6632 18.8584 16.9047 18.5408 16.9047C18.2312 16.9047 18.0497 16.6939 18.0497 16.2589C18.0591 16.037 18.0926 15.8169 18.1498 15.6023L18.8437 13.1229C18.9998 12.6105 19.0839 12.0821 19.0839 11.5483C19.0839 9.70275 17.959 8.73127 16.6085 8.73127C15.3355 8.73127 14.0437 9.8829 13.3978 11.0826L13.8769 8.92476H10.1578L9.63604 10.7983H11.3628L10.2979 15.0525C9.46656 16.9034 7.93329 16.9288 7.73846 16.8887C7.42219 16.814 7.2247 16.6952 7.2247 16.2856C7.2247 16.0467 7.26473 15.7131 7.37148 15.3007L8.99417 8.89007H4.89075L4.37299 10.7983H6.07841L4.97615 15.2901C4.89683 15.6455 4.8539 16.0081 4.84805 16.3723C4.84805 17.6427 5.53529 18.4861 7.00585 18.4861C8.22286 18.4861 9.20635 17.7668 9.91894 16.6018L9.48258 18.3406H11.8993L13.2777 12.808C13.6247 11.4002 14.2906 10.6756 15.3061 10.6756C16.1014 10.6756 16.6018 11.168 16.6018 11.9887C16.6018 12.2235 16.5778 12.4864 16.4871 12.764L15.7825 15.3074C15.6744 15.6797 15.6304 16.044 15.6304 16.391Z"/>
</mask>
<path fill-rule="evenodd" clip-rule="evenodd" d="M21.8222 0H2.17515C0.972811 0 0 0.972814 0 2.17515V21.8235C0 23.0245 0.972811 24 2.17515 24H21.8235C23.0245 24 24 23.0259 24 21.8235V2.17515C24 1.88928 23.9436 1.60622 23.8342 1.34214C23.7247 1.07807 23.5642 0.83816 23.362 0.636145C23.1597 0.434129 22.9196 0.273964 22.6554 0.16481C22.3912 0.0556557 22.1081 -0.0003475 21.8222 0ZM9.48525 6.10508C9.48525 5.29641 8.81669 4.66655 8.02002 4.66655C7.21402 4.66655 6.56548 5.31642 6.56548 6.12376C6.56548 6.9271 7.21402 7.57564 8.02003 7.57564C8.81669 7.57564 9.48525 6.9271 9.48525 6.10508ZM15.6304 16.391C15.6304 17.5973 16.3496 18.4807 17.8335 18.4807C19.1079 18.4807 20.1328 17.6694 20.6852 15.7037L19.7405 15.3408C19.2787 16.6632 18.8584 16.9047 18.5408 16.9047C18.2312 16.9047 18.0497 16.6939 18.0497 16.2589C18.0591 16.037 18.0926 15.8169 18.1498 15.6023L18.8437 13.1229C18.9998 12.6105 19.0839 12.0821 19.0839 11.5483C19.0839 9.70275 17.959 8.73127 16.6085 8.73127C15.3355 8.73127 14.0437 9.8829 13.3978 11.0826L13.8769 8.92476H10.1578L9.63604 10.7983H11.3628L10.2979 15.0525C9.46656 16.9034 7.93329 16.9288 7.73846 16.8887C7.42219 16.814 7.2247 16.6952 7.2247 16.2856C7.2247 16.0467 7.26473 15.7131 7.37148 15.3007L8.99417 8.89007H4.89075L4.37299 10.7983H6.07841L4.97615 15.2901C4.89683 15.6455 4.8539 16.0081 4.84805 16.3723C4.84805 17.6427 5.53529 18.4861 7.00585 18.4861C8.22286 18.4861 9.20635 17.7668 9.91894 16.6018L9.48258 18.3406H11.8993L13.2777 12.808C13.6247 11.4002 14.2906 10.6756 15.3061 10.6756C16.1014 10.6756 16.6018 11.168 16.6018 11.9887C16.6018 12.2235 16.5778 12.4864 16.4871 12.764L15.7825 15.3074C15.6744 15.6797 15.6304 16.044 15.6304 16.391Z" fill="currentColor"/>
<path d="M21.8222 0L21.8222 1L21.8234 0.999999L21.8222 0ZM23.362 0.636145L22.6553 1.34368L22.6553 1.34369L23.362 0.636145ZM22.6554 0.16481L22.2736 1.08904L22.2736 1.08904L22.6554 0.16481ZM20.6852 15.7037L21.6479 15.9743L21.8945 15.0971L21.0439 14.7703L20.6852 15.7037ZM19.7405 15.3408L20.0991 14.4073L19.1363 14.0374L18.7963 15.0111L19.7405 15.3408ZM18.0497 16.2589L17.0506 16.2167L17.0497 16.2378V16.2589H18.0497ZM18.1498 15.6023L17.1867 15.3328L17.1835 15.3449L18.1498 15.6023ZM18.8437 13.1229L17.8871 12.8315L17.8838 12.8424L17.8807 12.8534L18.8437 13.1229ZM13.3978 11.0826L12.4216 10.8658L14.2783 11.5566L13.3978 11.0826ZM13.8769 8.92476L14.8531 9.1415L15.1233 7.92476H13.8769V8.92476ZM10.1578 8.92476V7.92476H9.39824L9.19446 8.65648L10.1578 8.92476ZM9.63604 10.7983L8.6727 10.53L8.31949 11.7983H9.63604V10.7983ZM11.3628 10.7983L12.3329 11.0411L12.644 9.79833H11.3628V10.7983ZM10.2979 15.0525L11.2101 15.4623L11.2465 15.3814L11.268 15.2954L10.2979 15.0525ZM7.73846 16.8887L7.5085 17.8619L7.52279 17.8653L7.53717 17.8683L7.73846 16.8887ZM7.37148 15.3007L8.33958 15.5514L8.34091 15.5461L7.37148 15.3007ZM8.99417 8.89007L9.9636 9.13545L10.2788 7.89007H8.99417V8.89007ZM4.89075 8.89007V7.89007H4.12592L3.92564 8.62821L4.89075 8.89007ZM4.37299 10.7983L3.40788 10.5365L3.0655 11.7983H4.37299V10.7983ZM6.07841 10.7983L7.04959 11.0367L7.35347 9.79833H6.07841V10.7983ZM4.97615 15.2901L4.00497 15.0517L4.00246 15.062L4.00016 15.0723L4.97615 15.2901ZM4.84805 16.3723L3.84818 16.3562L3.84805 16.3643V16.3723H4.84805ZM9.91894 16.6018L10.8889 16.8452L9.06588 16.08L9.91894 16.6018ZM9.48258 18.3406L8.51265 18.0972L8.20061 19.3406H9.48258V18.3406ZM11.8993 18.3406V19.3406H12.6807L12.8696 18.5824L11.8993 18.3406ZM13.2777 12.808L14.2481 13.0498L14.2487 13.0473L13.2777 12.808ZM16.4871 12.764L15.5366 12.4532L15.5295 12.475L15.5234 12.497L16.4871 12.764ZM15.7825 15.3074L16.7429 15.5862L16.7462 15.5744L15.7825 15.3074ZM2.17515 1H21.8222V-1H2.17515V1ZM1 2.17515C1 1.5251 1.5251 1 2.17515 1V-1C0.420524 -1 -1 0.420531 -1 2.17515H1ZM1 21.8235V2.17515H-1V21.8235H1ZM2.17515 23C1.52629 23 1 22.4734 1 21.8235H-1C-1 23.5756 0.419327 25 2.17515 25V23ZM21.8235 23H2.17515V25H21.8235V23ZM23 21.8235C23 22.4732 22.4726 23 21.8235 23V25C23.5764 25 25 23.5785 25 21.8235H23ZM23 2.17515V21.8235H25V2.17515H23ZM22.9104 1.72511C22.9696 1.86778 23 2.02071 23 2.17515H25C25 1.75785 24.9177 1.34465 24.7579 0.959174L22.9104 1.72511ZM22.6553 1.34369C22.7646 1.45283 22.8513 1.58243 22.9104 1.72511L24.7579 0.959174C24.5981 0.573696 24.3639 0.223496 24.0686 -0.0713974L22.6553 1.34369ZM22.2736 1.08904C22.4163 1.14801 22.546 1.23454 22.6553 1.34368L24.0686 -0.0713942C23.7734 -0.366286 23.4229 -0.600085 23.0372 -0.759422L22.2736 1.08904ZM21.8234 0.999999C21.9779 0.999812 22.1308 1.03007 22.2736 1.08904L23.0372 -0.759421C22.6516 -0.918758 22.2383 -1.00051 21.821 -0.999999L21.8234 0.999999ZM8.02002 5.66655C8.29397 5.66655 8.48525 5.8778 8.48525 6.10508H10.4852C10.4852 4.71501 9.33941 3.66655 8.02002 3.66655V5.66655ZM7.56548 6.12376C7.56548 5.86692 7.7681 5.66655 8.02002 5.66655V3.66655C6.65994 3.66655 5.56548 4.76593 5.56548 6.12376H7.56548ZM8.02003 6.57564C7.76511 6.57564 7.56548 6.37362 7.56548 6.12376H5.56548C5.56548 7.48058 6.66293 8.57564 8.02003 8.57564V6.57564ZM8.48525 6.10508C8.48525 6.36832 8.27092 6.57564 8.02003 6.57564V8.57564C9.36246 8.57564 10.4852 7.48588 10.4852 6.10508H8.48525ZM17.8335 17.4807C17.2926 17.4807 17.0235 17.3245 16.8886 17.1872C16.749 17.0452 16.6304 16.7984 16.6304 16.391H14.6304C14.6304 17.19 14.8714 17.988 15.4623 18.5892C16.058 19.1953 16.8906 19.4807 17.8335 19.4807V17.4807ZM19.7225 15.4332C19.4774 16.3055 19.1566 16.8125 18.8508 17.0955C18.5652 17.3599 18.2388 17.4807 17.8335 17.4807V19.4807C18.7027 19.4807 19.5259 19.1959 20.2094 18.5632C20.8728 17.9492 21.3407 17.0676 21.6479 15.9743L19.7225 15.4332ZM19.3818 16.2743L20.3266 16.6372L21.0439 14.7703L20.0991 14.4073L19.3818 16.2743ZM18.5408 17.9047C19.0166 17.9047 19.4619 17.6977 19.8309 17.2865C20.1621 16.9174 20.4359 16.3827 20.6846 15.6704L18.7963 15.0111C18.5833 15.6213 18.4161 15.8686 18.3423 15.9508C18.3124 15.9841 18.3189 15.9665 18.3687 15.9429C18.4234 15.9169 18.4859 15.9047 18.5408 15.9047V17.9047ZM17.0497 16.2589C17.0497 16.5932 17.1161 17.0103 17.3926 17.3624C17.7007 17.7549 18.1394 17.9047 18.5408 17.9047V15.9047C18.5765 15.9047 18.6479 15.9109 18.7352 15.9493C18.8269 15.9895 18.9069 16.0525 18.9657 16.1274C19.0741 16.2654 19.0497 16.3596 19.0497 16.2589H17.0497ZM17.1835 15.3449C17.1076 15.6298 17.063 15.9221 17.0506 16.2167L19.0488 16.3011C19.0551 16.1519 19.0777 16.004 19.1161 15.8597L17.1835 15.3449ZM17.8807 12.8534L17.1868 15.3328L19.1128 15.8718L19.8067 13.3924L17.8807 12.8534ZM18.0839 11.5483C18.0839 11.9765 18.0165 12.4068 17.8871 12.8315L19.8003 13.4144C19.9832 12.8142 20.0839 12.1876 20.0839 11.5483H18.0839ZM16.6085 9.73127C17.0391 9.73127 17.3858 9.882 17.6278 10.1366C17.8694 10.3908 18.0839 10.8318 18.0839 11.5483H20.0839C20.0839 10.4193 19.736 9.45168 19.0775 8.75882C18.4194 8.06628 17.5284 7.73127 16.6085 7.73127V9.73127ZM14.2783 11.5566C14.5382 11.074 14.9336 10.5952 15.382 10.2463C15.8382 9.89143 16.2683 9.73127 16.6085 9.73127V7.73127C15.6757 7.73127 14.8234 8.14692 14.1539 8.66778C13.4768 9.19462 12.9034 9.89146 12.5173 10.6085L14.2783 11.5566ZM12.9007 8.70803L12.4216 10.8658L14.3741 11.2993L14.8531 9.1415L12.9007 8.70803ZM10.1578 9.92476H13.8769V7.92476H10.1578V9.92476ZM10.5994 11.0666L11.1211 9.19305L9.19446 8.65648L8.6727 10.53L10.5994 11.0666ZM11.3628 9.79833H9.63604V11.7983H11.3628V9.79833ZM11.268 15.2954L12.3329 11.0411L10.3927 10.5555L9.32785 14.8097L11.268 15.2954ZM7.53717 17.8683C7.74414 17.9108 8.00407 17.9025 8.24172 17.8694C8.50966 17.8321 8.84005 17.7508 9.19352 17.59C9.91929 17.2599 10.6916 16.6167 11.2101 15.4623L9.38572 14.6428C9.0729 15.3392 8.66288 15.6342 8.36546 15.7695C8.20734 15.8414 8.06592 15.8746 7.9656 15.8886C7.83498 15.9068 7.83019 15.8867 7.93974 15.9092L7.53717 17.8683ZM6.2247 16.2856C6.2247 16.6516 6.3167 17.0756 6.65062 17.4146C6.94779 17.7162 7.31392 17.816 7.5085 17.8619L7.96841 15.9155C7.91924 15.9039 7.91453 15.8995 7.93149 15.907C7.95245 15.9164 8.01146 15.9461 8.07533 16.0109C8.14339 16.08 8.18634 16.1578 8.20856 16.224C8.22814 16.2824 8.2247 16.3108 8.2247 16.2856H6.2247ZM6.4034 15.0501C6.28046 15.525 6.2247 15.9442 6.2247 16.2856H8.2247C8.2247 16.1492 8.24899 15.9012 8.33956 15.5514L6.4034 15.0501ZM8.02474 8.64469L6.40206 15.0554L8.34091 15.5461L9.9636 9.13545L8.02474 8.64469ZM4.89075 9.89007H8.99417V7.89007H4.89075V9.89007ZM5.33809 11.0602L5.85586 9.15193L3.92564 8.62821L3.40788 10.5365L5.33809 11.0602ZM6.07841 9.79833H4.37299V11.7983H6.07841V9.79833ZM5.94734 15.5284L7.04959 11.0367L5.10722 10.56L4.00497 15.0517L5.94734 15.5284ZM5.84792 16.3884C5.85268 16.0921 5.8876 15.7971 5.95215 15.5079L4.00016 15.0723C3.90605 15.494 3.85512 15.9242 3.84818 16.3562L5.84792 16.3884ZM7.00585 17.4861C6.46151 17.4861 6.21363 17.3344 6.09612 17.2123C5.97169 17.0829 5.84805 16.8351 5.84805 16.3723H3.84805C3.84805 17.1799 4.06803 17.989 4.65486 18.5989C5.24861 19.216 6.07962 19.4861 7.00585 19.4861V17.4861ZM9.06588 16.08C8.46841 17.0568 7.76368 17.4861 7.00585 17.4861V19.4861C8.68204 19.4861 9.94429 18.4768 10.772 17.1236L9.06588 16.08ZM10.4525 18.584L10.8889 16.8452L8.94902 16.3584L8.51265 18.0972L10.4525 18.584ZM11.8993 17.3406H9.48258V19.3406H11.8993V17.3406ZM12.3074 12.5662L10.9289 18.0988L12.8696 18.5824L14.2481 13.0498L12.3074 12.5662ZM15.3061 9.67556C14.5286 9.67556 13.8432 9.9662 13.3137 10.5278C12.8135 11.0581 12.5023 11.7755 12.3068 12.5687L14.2487 13.0473C14.4002 12.4327 14.5953 12.0838 14.7687 11.8999C14.9127 11.7472 15.0681 11.6756 15.3061 11.6756V9.67556ZM17.6018 11.9887C17.6018 11.3736 17.4103 10.7705 16.9612 10.3191C16.5118 9.86738 15.9121 9.67556 15.3061 9.67556V11.6756C15.4023 11.6756 15.4628 11.6904 15.4958 11.7027C15.5269 11.7143 15.5388 11.7252 15.5433 11.7296C15.5477 11.7341 15.5598 11.7474 15.5725 11.782C15.586 11.8186 15.6018 11.8845 15.6018 11.9887H17.6018ZM17.4376 13.0747C17.5708 12.6672 17.6018 12.2925 17.6018 11.9887H15.6018C15.6018 12.1545 15.5848 12.3056 15.5366 12.4532L17.4376 13.0747ZM16.7462 15.5744L17.4508 13.0309L15.5234 12.497L14.8188 15.0405L16.7462 15.5744ZM16.6304 16.391C16.6304 16.1293 16.6635 15.8596 16.7428 15.5862L14.8221 15.0286C14.6853 15.4999 14.6304 15.9588 14.6304 16.391H16.6304Z" fill="currentColor" mask="url(#path-1-inside-1_1_4)"/>
</g>
<defs>
<clipPath id="clip0_1_4">
<rect width="24" height="24" fill="white"/>
</clipPath>
</defs>
</svg>
