<svg width="24" height="24" viewBox="0 0 24 24" fill="none" xmlns="http://www.w3.org/2000/svg">
<g clip-path="url(#clip0_1_4)">
<path d="M21.8222 1L21.8234 1C21.9779 0.999812 22.1308 1.03007 22.2736 1.08904C22.4163 1.14801 22.546 1.23454 22.6553 1.34368L23.3616 0.636519L22.6553 1.34369C22.7646 1.45283 22.8513 1.58244 22.9104 1.72511C22.9696 1.86778 23 2.02071 23 2.17515V21.8235C23 22.4732 22.4726 23 21.8235 23H2.17515C1.52629 23 1 22.4734 1 21.8235V2.17515C1 1.5251 1.5251 1 2.17515 1L21.8222 1Z" stroke="currentColor" stroke-width="2"/>
<path d="M16.2627 15.4468L16.2627 15.4468L16.2643 15.4409L16.966 12.9079C17.0749 12.5697 17.1018 12.255 17.1018 11.9887C17.1018 11.4759 16.9435 11.0103 16.6067 10.6717C16.2697 10.333 15.8079 10.1756 15.3061 10.1756C15.0563 10.1756 14.8201 10.2112 14.5992 10.2817C14.7487 10.1263 14.9083 9.98139 15.075 9.85167C15.5845 9.4553 16.1201 9.23127 16.6085 9.23127C17.1614 9.23127 17.6442 9.42807 17.9902 9.79214C18.336 10.1561 18.5839 10.7286 18.5839 11.5483C18.5839 12.0293 18.5082 12.5087 18.3654 12.9772L18.3653 12.9772L18.3622 12.9882L17.6683 15.4676L17.6683 15.4676L17.6666 15.4736C17.6001 15.7233 17.5611 15.9796 17.5502 16.2378L17.5497 16.2483V16.2589C17.5497 16.5348 17.6056 16.8241 17.7859 17.0537C17.9819 17.3035 18.2627 17.4047 18.5408 17.4047C18.8581 17.4047 19.173 17.271 19.4587 16.9526C19.6578 16.7308 19.8458 16.417 20.028 15.9869L20.067 16.0019C19.824 16.6881 19.5204 17.1571 19.1905 17.4624C18.8054 17.8189 18.3548 17.9807 17.8335 17.9807C17.1921 17.9807 16.7822 17.7922 16.5321 17.5377C16.2796 17.2809 16.1304 16.8963 16.1304 16.391C16.1304 16.0866 16.1689 15.7697 16.2627 15.4468ZM10.1236 17.8406L10.4039 16.7235L9.89655 16.5106C10.2141 16.2027 10.5127 15.7946 10.754 15.2574L10.7722 15.217L10.783 15.1739L11.8478 10.9197L12.0034 10.2983H11.3628H10.2943L10.5376 9.42477H13.2537L12.9097 10.9742L13.4346 11.1695C13.1463 11.5788 12.9387 12.0945 12.7924 12.6878C12.7924 12.688 12.7923 12.6882 12.7923 12.6884L11.5085 17.8406H10.1236ZM5.7358 17.5589C5.49635 17.31 5.34876 16.9232 5.34805 16.3763C5.35358 16.0491 5.39211 15.7234 5.46303 15.404L6.564 10.9175L6.71594 10.2983H6.07841H5.02673L5.27316 9.39007H8.35184L6.88744 15.1754C6.88732 15.1759 6.88721 15.1763 6.88709 15.1768C6.7725 15.6198 6.72469 15.9958 6.72469 16.2856C6.72469 16.571 6.79538 16.8491 7.0068 17.0637C7.19984 17.2596 7.44712 17.3337 7.62348 17.3753L7.63063 17.377L7.63782 17.3785C7.76565 17.4048 7.9618 17.4036 8.17269 17.3742C8.3554 17.3487 8.57542 17.2986 8.81395 17.2071C8.28783 17.7182 7.68026 17.9861 7.00585 17.9861C6.36604 17.9861 5.97237 17.8048 5.7358 17.5589ZM8.02002 5.16655C8.55533 5.16655 8.98525 5.58711 8.98525 6.10508C8.98525 6.64771 8.54381 7.07564 8.02003 7.07564C7.48956 7.07564 7.06548 6.65036 7.06548 6.12376C7.06548 5.59167 7.49106 5.16655 8.02002 5.16655Z" fill="currentColor" stroke="currentColor"/>
</g>
<defs>
<clipPath id="clip0_1_4">
<rect width="24" height="24" fill="white"/>
</clipPath>
</defs>
</svg>
