<svg width="250" height="250" viewBox="0 0 250 250" fill="none" xmlns="http://www.w3.org/2000/svg">
<g clip-path="url(#clip0_4_369)">
<path d="M250 0H0V250H250V0Z" fill="black"/>
<path d="M85.0703 80.45C87.9031 80.4086 90.6604 79.5308 92.9958 77.9268C95.3311 76.3228 97.1402 74.0644 98.1957 71.4352C99.2512 68.8061 99.506 65.9236 98.928 63.15C98.3501 60.3765 96.9652 57.8357 94.9474 55.847C92.9296 53.8583 90.369 52.5104 87.5873 51.9727C84.8057 51.435 81.9273 51.7316 79.3137 52.8251C76.7001 53.9187 74.4681 55.7604 72.8982 58.1187C71.3283 60.4771 70.4905 63.2469 70.4902 66.08C70.4967 67.983 70.8798 69.8659 71.6174 71.6201C72.355 73.3744 73.4326 74.9652 74.7879 76.3011C76.1433 77.6369 77.7496 78.6913 79.5144 79.4033C81.2791 80.1154 83.1674 80.4711 85.0703 80.45Z" fill="white"/>
<path d="M54.8399 157.38C54.012 160.918 53.5794 164.537 53.5499 168.17C53.5499 180.82 60.4099 189.22 74.9899 189.22C87.0799 189.22 96.8899 182.04 103.94 170.44L99.6299 187.74H123.63L137.36 132.74C140.79 118.8 147.43 111.57 157.51 111.57C165.44 111.57 170.37 116.5 170.37 124.65C170.409 127.263 170.048 129.866 169.3 132.37L162.23 157.66C161.218 161.143 160.713 164.753 160.73 168.38C160.73 180.38 167.8 189.18 182.59 189.18C195.24 189.18 205.32 181.04 210.89 161.53L201.46 157.88C196.74 170.96 192.67 173.32 189.46 173.32C186.25 173.32 184.52 171.18 184.52 166.89C184.613 164.639 184.972 162.407 185.59 160.24L192.46 135.59C194.002 130.522 194.797 125.257 194.82 119.96C194.82 101.52 183.67 91.9 170.16 91.9C157.51 91.9 144.65 103.31 138.22 115.32L142.93 93.76H106.28L101.13 112.76H118.29L107.73 155C99.4299 173.44 84.1899 173.74 82.2799 173.31C79.1399 172.6 77.1399 171.41 77.1399 167.31C77.2315 163.991 77.7353 160.695 78.6399 157.5L94.7199 93.71H53.9999L48.8599 112.71H65.7899L54.8399 157.38Z" fill="white"/>
</g>
<defs>
<clipPath id="clip0_4_369">
<rect width="250" height="250" fill="white"/>
</clipPath>
</defs>
</svg>
